<?xml version="1.0" encoding="UTF-8" standalone="no"?>
<!-- Created with Inkscape (http://www.inkscape.org/) -->

<svg
   version="1.1"
   id="svg374"
   width="50"
   height="50"
   viewBox="0 0 50 50"
   sodipodi:docname="dot-logo.svg"
   inkscape:version="1.1.2 (0a00cf5339, 2022-02-04)"
   xmlns:inkscape="http://www.inkscape.org/namespaces/inkscape"
   xmlns:sodipodi="http://sodipodi.sourceforge.net/DTD/sodipodi-0.dtd"
   xmlns="http://www.w3.org/2000/svg"
   xmlns:svg="http://www.w3.org/2000/svg">
  <defs
     id="defs378" />
  <sodipodi:namedview
     id="namedview376"
     pagecolor="#ffffff"
     bordercolor="#666666"
     borderopacity="1.0"
     inkscape:showpageshadow="2"
     inkscape:pageopacity="0.0"
     inkscape:pagecheckerboard="0"
     inkscape:deskcolor="#d1d1d1"
     showgrid="false"
     inkscape:zoom="13.05"
     inkscape:cx="37.011494"
     inkscape:cy="34.022989"
     inkscape:window-width="2560"
     inkscape:window-height="1403"
     inkscape:window-x="0"
     inkscape:window-y="0"
     inkscape:window-maximized="1"
     inkscape:current-layer="g384"
     inkscape:pageshadow="2">
    <inkscape:page
       x="0"
       y="0"
       id="page380"
       width="142"
       height="50" />
    <inkscape:grid
       type="xygrid"
       id="grid639"
       originx="0"
       originy="0" />
  </sodipodi:namedview>
  <g
     id="g382"
     inkscape:groupmode="layer"
     inkscape:label="Page 1"
     transform="matrix(1.3333333,0,0,-1.3333333,0,133.33333)">
    <g
       id="g384"
       transform="matrix(0.06742755,0,0,0.06742755,-4.2430225,47.765881)"
       style="fill:#000000">
      <path
         d="m 421.22333,545.09011 c -23.36,0 -42.29,-18.965 -42.29,-42.266 0,-23.32 18.96,-42.285 42.28,-42.285 23.28,0 42.23,18.965 42.23,42.285 0,23.301 -18.95,42.266 -42.22,42.266"
         style="fill:#ffffff;fill-opacity:1;fill-rule:nonzero;stroke:none"
         id="path386" />
      <path
         d="m 540.30333,268.51511 c -13.14,0 -23.81,-10.691 -23.81,-23.843 0,-13.165 10.67,-23.887 23.81,-23.887 13.19,0 23.92,10.722 23.92,23.887 0,13.152 -10.73,23.843 -23.92,23.843"
         style="fill:#ffffff;fill-opacity:1;fill-rule:nonzero;stroke:none"
         id="path388" />
      <path
         d="m 540.30333,328.11711 c -13.14,0 -23.81,-10.711 -23.81,-23.867 0,-13.184 10.67,-23.907 23.81,-23.907 13.19,0 23.92,10.723 23.92,23.907 0,13.156 -10.73,23.867 -23.92,23.867"
         style="fill:#ffffff;fill-opacity:1;fill-rule:nonzero;stroke:none"
         id="path390" />
      <path
         d="m 540.30333,387.67511 c -13.14,0 -23.81,-10.71 -23.81,-23.875 0,-13.156 10.67,-23.855 23.81,-23.855 13.19,0 23.92,10.699 23.92,23.855 0,13.165 -10.73,23.875 -23.92,23.875"
         style="fill:#ffffff;fill-opacity:1;fill-rule:nonzero;stroke:none"
         id="path392" />
      <path
         d="m 480.74333,268.51511 c -13.14,0 -23.87,-10.679 -23.88,-23.816 0.01,-13.211 10.74,-23.914 23.88,-23.914 13.19,0 23.92,10.722 23.92,23.887 0,13.152 -10.73,23.843 -23.92,23.843 z m 0,-10 c 7.68,0 13.92,-6.211 13.92,-13.843 0,-7.661 -6.24,-13.887 -13.92,-13.887 -7.65,0 -13.87,6.25 -13.88,13.902 0.01,7.629 6.23,13.828 13.88,13.828"
         style="fill:#ffffff;fill-opacity:1;fill-rule:nonzero;stroke:none"
         id="path394" />
      <path
         d="m 480.74333,328.11711 c -13.14,0 -23.87,-10.695 -23.88,-23.836 0.01,-13.242 10.74,-23.938 23.88,-23.938 13.19,0 23.92,10.723 23.92,23.907 0,13.156 -10.73,23.867 -23.92,23.867 z m 0,-10 c 7.68,0 13.92,-6.223 13.92,-13.867 0,-7.664 -6.24,-13.907 -13.92,-13.907 -7.65,0 -13.87,6.258 -13.88,13.926 0.01,7.637 6.23,13.848 13.88,13.848"
         style="fill:#ffffff;fill-opacity:1;fill-rule:nonzero;stroke:none"
         id="path396" />
      <path
         d="m 421.21333,268.51511 c -13.17,0 -23.87,-10.691 -23.87,-23.843 0,-13.165 10.7,-23.887 23.87,-23.887 13.1,0 23.79,10.703 23.82,23.836 -0.03,13.215 -10.72,23.894 -23.82,23.894"
         style="fill:#ffffff;fill-opacity:1;fill-rule:nonzero;stroke:none"
         id="path398" />
      <path
         d="m 421.21333,328.11711 c -13.17,0 -23.87,-10.711 -23.87,-23.867 0,-13.184 10.7,-23.907 23.87,-23.907 13.1,0 23.79,10.696 23.82,23.836 -0.03,13.243 -10.72,23.938 -23.82,23.938"
         style="fill:#ffffff;fill-opacity:1;fill-rule:nonzero;stroke:none"
         id="path400" />
      <path
         d="m 421.21333,387.67511 c -13.17,0 -23.87,-10.71 -23.87,-23.875 0,-13.156 10.7,-23.855 23.87,-23.855 13.15,0 23.82,10.699 23.82,23.855 0,13.165 -10.67,23.875 -23.82,23.875"
         style="fill:#ffffff;fill-opacity:1;fill-rule:nonzero;stroke:none"
         id="path402" />
      <path
         d="m 361.61333,268.51511 c -13.15,0 -23.86,-10.691 -23.86,-23.843 0,-13.165 10.71,-23.887 23.86,-23.887 13.18,0 23.9,10.722 23.9,23.887 0,13.152 -10.72,23.843 -23.9,23.843 z m 0,-10 c 7.67,0 13.9,-6.211 13.9,-13.843 0,-7.661 -6.23,-13.887 -13.9,-13.887 -7.64,0 -13.86,6.226 -13.86,13.887 0,7.632 6.22,13.843 13.86,13.843"
         style="fill:#ffffff;fill-opacity:1;fill-rule:nonzero;stroke:none"
         id="path404" />
      <path
         d="m 361.61333,328.11711 c -13.15,0 -23.86,-10.711 -23.86,-23.867 0,-13.184 10.71,-23.907 23.86,-23.907 13.18,0 23.9,10.723 23.9,23.907 0,13.156 -10.72,23.867 -23.9,23.867 z m 0,-10 c 7.67,0 13.9,-6.223 13.9,-13.867 0,-7.664 -6.23,-13.907 -13.9,-13.907 -7.64,0 -13.86,6.243 -13.86,13.907 0,7.644 6.22,13.867 13.86,13.867"
         style="fill:#ffffff;fill-opacity:1;fill-rule:nonzero;stroke:none"
         id="path406" />
      <path
         d="m 361.61333,387.67511 c -13.15,0 -23.86,-10.71 -23.86,-23.875 0,-13.156 10.71,-23.855 23.86,-23.855 13.18,0 23.9,10.699 23.9,23.855 0,13.165 -10.72,23.875 -23.9,23.875 z m 0,-10 c 7.67,0 13.9,-6.218 13.9,-13.875 0,-7.636 -6.23,-13.855 -13.9,-13.855 -7.64,0 -13.86,6.219 -13.86,13.855 0,7.657 6.22,13.875 13.86,13.875"
         style="fill:#ffffff;fill-opacity:1;fill-rule:nonzero;stroke:none"
         id="path408" />
      <path
         d="m 302.03333,268.51511 c -13.17,0 -23.9,-10.691 -23.9,-23.843 0,-13.165 10.73,-23.887 23.9,-23.887 13.18,0 23.9,10.722 23.9,23.887 0,13.152 -10.72,23.843 -23.9,23.843"
         style="fill:#ffffff;fill-opacity:1;fill-rule:nonzero;stroke:none"
         id="path410" />
      <path
         d="m 302.03333,328.11711 c -13.17,0 -23.9,-10.711 -23.9,-23.867 0,-13.184 10.73,-23.907 23.9,-23.907 13.18,0 23.9,10.723 23.9,23.907 0,13.156 -10.72,23.867 -23.9,23.867"
         style="fill:#ffffff;fill-opacity:1;fill-rule:nonzero;stroke:none"
         id="path412" />
      <path
         d="m 302.03333,387.67511 c -13.17,0 -23.9,-10.71 -23.9,-23.875 0,-13.156 10.73,-23.855 23.9,-23.855 13.18,0 23.9,10.699 23.9,23.855 0,13.165 -10.72,23.875 -23.9,23.875"
         style="fill:#ffffff;fill-opacity:1;fill-rule:nonzero;stroke:none"
         id="path414" />
      <path
         d="m 302.03333,447.23811 c -13.17,0 -23.9,-10.676 -23.9,-23.809 0,-13.191 10.73,-23.925 23.9,-23.925 13.18,0 23.9,10.734 23.9,23.925 0,13.133 -10.72,23.809 -23.9,23.809"
         style="fill:#ffffff;fill-opacity:1;fill-rule:nonzero;stroke:none"
         id="path416" />
      <path
         d="m 421.21333,447.23811 c -13.17,0 -23.87,-10.676 -23.87,-23.809 0,-13.191 10.7,-23.925 23.87,-23.925 13.15,0 23.82,10.734 23.82,23.925 0,13.133 -10.67,23.809 -23.82,23.809"
         style="fill:#ffffff;fill-opacity:1;fill-rule:nonzero;stroke:none"
         id="path418" />
      <path
         d="m 421.22333,558.39011 c 13.14,0 23.81,10.723 23.81,23.875 0,13.157 -10.67,23.86 -23.82,23.86 -13.17,0 -23.87,-10.703 -23.87,-23.86 0,-13.152 10.68,-23.875 23.81,-23.875"
         style="fill:#ffffff;fill-opacity:1;fill-rule:nonzero;stroke:none"
         id="path420" />
      <path
         d="m 421.21333,665.70711 c -13.17,0 -23.87,-10.696 -23.87,-23.86 0,-13.183 10.7,-23.894 23.87,-23.894 13.15,0 23.82,10.711 23.82,23.894 0,13.164 -10.67,23.86 -23.82,23.86"
         style="fill:#ffffff;fill-opacity:1;fill-rule:nonzero;stroke:none"
         id="path422" />
      <path
         d="m 302.03333,506.82811 c -13.17,0 -23.9,-10.703 -23.9,-23.887 0,-13.164 10.73,-23.867 23.9,-23.867 13.18,0 23.9,10.703 23.9,23.867 0,13.184 -10.72,23.887 -23.9,23.887"
         style="fill:#ffffff;fill-opacity:1;fill-rule:nonzero;stroke:none"
         id="path424" />
      <path
         d="m 242.45333,268.51511 c -13.19,0 -23.92,-10.691 -23.92,-23.843 0,-13.165 10.73,-23.887 23.92,-23.887 13.16,0 23.86,10.722 23.86,23.887 0,13.152 -10.7,23.843 -23.86,23.843 z m 0,-10 c 7.64,0 13.86,-6.211 13.86,-13.843 0,-7.661 -6.22,-13.887 -13.86,-13.887 -7.67,0 -13.92,6.226 -13.92,13.887 0,7.632 6.25,13.843 13.92,13.843"
         style="fill:#ffffff;fill-opacity:1;fill-rule:nonzero;stroke:none"
         id="path426" />
      <path
         d="m 242.45333,328.11711 c -13.19,0 -23.92,-10.711 -23.92,-23.867 0,-13.184 10.73,-23.907 23.92,-23.907 13.16,0 23.86,10.723 23.86,23.907 0,13.156 -10.7,23.867 -23.86,23.867 z m 0,-10 c 7.64,0 13.86,-6.223 13.86,-13.867 0,-7.664 -6.22,-13.907 -13.86,-13.907 -7.67,0 -13.92,6.243 -13.92,13.907 0,7.644 6.25,13.867 13.92,13.867"
         style="fill:#ffffff;fill-opacity:1;fill-rule:nonzero;stroke:none"
         id="path428" />
      <path
         d="m 242.45333,387.67511 c -13.19,0 -23.92,-10.71 -23.92,-23.875 0,-13.156 10.73,-23.855 23.92,-23.855 13.16,0 23.86,10.699 23.86,23.855 0,13.165 -10.7,23.875 -23.86,23.875 z m 0,-10 c 7.64,0 13.86,-6.218 13.86,-13.875 0,-7.636 -6.22,-13.855 -13.86,-13.855 -7.67,0 -13.92,6.219 -13.92,13.855 0,7.657 6.25,13.875 13.92,13.875"
         style="fill:#ffffff;fill-opacity:1;fill-rule:nonzero;stroke:none"
         id="path430" />
      <path
         d="m 143.19333,268.51511 c -13.17,0 -23.9,-10.691 -23.9,-23.843 0,-13.165 10.73,-23.887 23.9,-23.887 13.14,0 23.83,10.722 23.83,23.887 0,13.152 -10.69,23.843 -23.83,23.843"
         style="fill:#ffffff;fill-opacity:1;fill-rule:nonzero;stroke:none"
         id="path432" />
      <path
         d="m 182.89333,328.11711 c -13.19,0 -23.91,-10.711 -23.91,-23.867 0,-13.184 10.72,-23.907 23.91,-23.907 13.13,0 23.8,10.723 23.8,23.907 0,13.156 -10.67,23.867 -23.8,23.867"
         style="fill:#ffffff;fill-opacity:1;fill-rule:nonzero;stroke:none"
         id="path434" />
      <path
         d="m 182.89333,447.23811 c -13.19,0 -23.91,-10.691 -23.91,-23.84 0,-13.183 10.72,-23.894 23.91,-23.894 13.13,0 23.8,10.711 23.8,23.894 0,13.149 -10.67,23.84 -23.8,23.84"
         style="fill:#ffffff;fill-opacity:1;fill-rule:nonzero;stroke:none"
         id="path436" />
      <path
         d="m 143.19333,387.67511 c -13.17,0 -23.9,-10.71 -23.9,-23.875 0,-13.156 10.73,-23.855 23.9,-23.855 13.14,0 23.83,10.699 23.83,23.855 0,13.165 -10.69,23.875 -23.83,23.875"
         style="fill:#ffffff;fill-opacity:1;fill-rule:nonzero;stroke:none"
         id="path438" />
    </g>
  </g>
</svg>
