<?xml version="1.0" encoding="UTF-8" standalone="no"?>
<!-- Created with Inkscape (http://www.inkscape.org/) -->

<svg
   version="1.1"
   id="svg374"
   width="142"
   height="50"
   viewBox="0 0 142 50"
   sodipodi:docname="top-logo.svg"
   inkscape:version="1.2 (1:1.2+202206011327+fc4e4096c5)"
   xmlns:inkscape="http://www.inkscape.org/namespaces/inkscape"
   xmlns:sodipodi="http://sodipodi.sourceforge.net/DTD/sodipodi-0.dtd"
   xmlns="http://www.w3.org/2000/svg"
   xmlns:svg="http://www.w3.org/2000/svg">
  <defs
     id="defs378" />
  <sodipodi:namedview
     id="namedview376"
     pagecolor="#ffffff"
     bordercolor="#666666"
     borderopacity="1.0"
     inkscape:showpageshadow="2"
     inkscape:pageopacity="0.0"
     inkscape:pagecheckerboard="0"
     inkscape:deskcolor="#d1d1d1"
     showgrid="true"
     inkscape:zoom="6.5249998"
     inkscape:cx="64.29119"
     inkscape:cy="36.475097"
     inkscape:window-width="1920"
     inkscape:window-height="1043"
     inkscape:window-x="0"
     inkscape:window-y="0"
     inkscape:window-maximized="1"
     inkscape:current-layer="g382">
    <inkscape:page
       x="0"
       y="0"
       id="page380"
       width="142"
       height="50" />
    <inkscape:grid
       type="xygrid"
       id="grid639"
       originx="0"
       originy="0" />
  </sodipodi:namedview>
  <g
     id="g382"
     inkscape:groupmode="layer"
     inkscape:label="Page 1"
     transform="matrix(1.3333333,0,0,-1.3333333,0,133.33333)">
    <g
       id="g384"
       transform="matrix(0.06742755,0,0,0.06742755,-4.2430225,47.765881)"
       style="fill:#ffffff">
      <path
         d="m 1339.91,598.438 c -23.36,0 -42.29,-18.965 -42.29,-42.266 0,-23.32 18.96,-42.285 42.28,-42.285 23.28,0 42.23,18.965 42.23,42.285 0,23.301 -18.95,42.266 -42.22,42.266"
         style="fill:#ffffff;fill-opacity:1;fill-rule:nonzero;stroke:none"
         id="path386" />
      <path
         d="m 1458.99,321.863 c -13.14,0 -23.81,-10.691 -23.81,-23.843 0,-13.165 10.67,-23.887 23.81,-23.887 13.19,0 23.92,10.722 23.92,23.887 0,13.152 -10.73,23.843 -23.92,23.843"
         style="fill:#ffffff;fill-opacity:1;fill-rule:nonzero;stroke:none"
         id="path388" />
      <path
         d="m 1458.99,381.465 c -13.14,0 -23.81,-10.711 -23.81,-23.867 0,-13.184 10.67,-23.907 23.81,-23.907 13.19,0 23.92,10.723 23.92,23.907 0,13.156 -10.73,23.867 -23.92,23.867"
         style="fill:#ffffff;fill-opacity:1;fill-rule:nonzero;stroke:none"
         id="path390" />
      <path
         d="m 1458.99,441.023 c -13.14,0 -23.81,-10.71 -23.81,-23.875 0,-13.156 10.67,-23.855 23.81,-23.855 13.19,0 23.92,10.699 23.92,23.855 0,13.165 -10.73,23.875 -23.92,23.875"
         style="fill:#ffffff;fill-opacity:1;fill-rule:nonzero;stroke:none"
         id="path392" />
      <path
         d="m 1399.43,321.863 c -13.14,0 -23.87,-10.679 -23.88,-23.816 0.01,-13.211 10.74,-23.914 23.88,-23.914 13.19,0 23.92,10.722 23.92,23.887 0,13.152 -10.73,23.843 -23.92,23.843 z m 0,-10 c 7.68,0 13.92,-6.211 13.92,-13.843 0,-7.661 -6.24,-13.887 -13.92,-13.887 -7.65,0 -13.87,6.25 -13.88,13.902 0.01,7.629 6.23,13.828 13.88,13.828"
         style="fill:#ffffff;fill-opacity:1;fill-rule:nonzero;stroke:none"
         id="path394" />
      <path
         d="m 1399.43,381.465 c -13.14,0 -23.87,-10.695 -23.88,-23.836 0.01,-13.242 10.74,-23.938 23.88,-23.938 13.19,0 23.92,10.723 23.92,23.907 0,13.156 -10.73,23.867 -23.92,23.867 z m 0,-10 c 7.68,0 13.92,-6.223 13.92,-13.867 0,-7.664 -6.24,-13.907 -13.92,-13.907 -7.65,0 -13.87,6.258 -13.88,13.926 0.01,7.637 6.23,13.848 13.88,13.848"
         style="fill:#ffffff;fill-opacity:1;fill-rule:nonzero;stroke:none"
         id="path396" />
      <path
         d="m 1339.9,321.863 c -13.17,0 -23.87,-10.691 -23.87,-23.843 0,-13.165 10.7,-23.887 23.87,-23.887 13.1,0 23.79,10.703 23.82,23.836 -0.03,13.215 -10.72,23.894 -23.82,23.894"
         style="fill:#ffffff;fill-opacity:1;fill-rule:nonzero;stroke:none"
         id="path398" />
      <path
         d="m 1339.9,381.465 c -13.17,0 -23.87,-10.711 -23.87,-23.867 0,-13.184 10.7,-23.907 23.87,-23.907 13.1,0 23.79,10.696 23.82,23.836 -0.03,13.243 -10.72,23.938 -23.82,23.938"
         style="fill:#ffffff;fill-opacity:1;fill-rule:nonzero;stroke:none"
         id="path400" />
      <path
         d="m 1339.9,441.023 c -13.17,0 -23.87,-10.71 -23.87,-23.875 0,-13.156 10.7,-23.855 23.87,-23.855 13.15,0 23.82,10.699 23.82,23.855 0,13.165 -10.67,23.875 -23.82,23.875"
         style="fill:#ffffff;fill-opacity:1;fill-rule:nonzero;stroke:none"
         id="path402" />
      <path
         d="m 1280.3,321.863 c -13.15,0 -23.86,-10.691 -23.86,-23.843 0,-13.165 10.71,-23.887 23.86,-23.887 13.18,0 23.9,10.722 23.9,23.887 0,13.152 -10.72,23.843 -23.9,23.843 z m 0,-10 c 7.67,0 13.9,-6.211 13.9,-13.843 0,-7.661 -6.23,-13.887 -13.9,-13.887 -7.64,0 -13.86,6.226 -13.86,13.887 0,7.632 6.22,13.843 13.86,13.843"
         style="fill:#ffffff;fill-opacity:1;fill-rule:nonzero;stroke:none"
         id="path404" />
      <path
         d="m 1280.3,381.465 c -13.15,0 -23.86,-10.711 -23.86,-23.867 0,-13.184 10.71,-23.907 23.86,-23.907 13.18,0 23.9,10.723 23.9,23.907 0,13.156 -10.72,23.867 -23.9,23.867 z m 0,-10 c 7.67,0 13.9,-6.223 13.9,-13.867 0,-7.664 -6.23,-13.907 -13.9,-13.907 -7.64,0 -13.86,6.243 -13.86,13.907 0,7.644 6.22,13.867 13.86,13.867"
         style="fill:#ffffff;fill-opacity:1;fill-rule:nonzero;stroke:none"
         id="path406" />
      <path
         d="m 1280.3,441.023 c -13.15,0 -23.86,-10.71 -23.86,-23.875 0,-13.156 10.71,-23.855 23.86,-23.855 13.18,0 23.9,10.699 23.9,23.855 0,13.165 -10.72,23.875 -23.9,23.875 z m 0,-10 c 7.67,0 13.9,-6.218 13.9,-13.875 0,-7.636 -6.23,-13.855 -13.9,-13.855 -7.64,0 -13.86,6.219 -13.86,13.855 0,7.657 6.22,13.875 13.86,13.875"
         style="fill:#ffffff;fill-opacity:1;fill-rule:nonzero;stroke:none"
         id="path408" />
      <path
         d="m 1220.72,321.863 c -13.17,0 -23.9,-10.691 -23.9,-23.843 0,-13.165 10.73,-23.887 23.9,-23.887 13.18,0 23.9,10.722 23.9,23.887 0,13.152 -10.72,23.843 -23.9,23.843"
         style="fill:#ffffff;fill-opacity:1;fill-rule:nonzero;stroke:none"
         id="path410" />
      <path
         d="m 1220.72,381.465 c -13.17,0 -23.9,-10.711 -23.9,-23.867 0,-13.184 10.73,-23.907 23.9,-23.907 13.18,0 23.9,10.723 23.9,23.907 0,13.156 -10.72,23.867 -23.9,23.867"
         style="fill:#ffffff;fill-opacity:1;fill-rule:nonzero;stroke:none"
         id="path412" />
      <path
         d="m 1220.72,441.023 c -13.17,0 -23.9,-10.71 -23.9,-23.875 0,-13.156 10.73,-23.855 23.9,-23.855 13.18,0 23.9,10.699 23.9,23.855 0,13.165 -10.72,23.875 -23.9,23.875"
         style="fill:#ffffff;fill-opacity:1;fill-rule:nonzero;stroke:none"
         id="path414" />
      <path
         d="m 1220.72,500.586 c -13.17,0 -23.9,-10.676 -23.9,-23.809 0,-13.191 10.73,-23.925 23.9,-23.925 13.18,0 23.9,10.734 23.9,23.925 0,13.133 -10.72,23.809 -23.9,23.809"
         style="fill:#ffffff;fill-opacity:1;fill-rule:nonzero;stroke:none"
         id="path416" />
      <path
         d="m 1339.9,500.586 c -13.17,0 -23.87,-10.676 -23.87,-23.809 0,-13.191 10.7,-23.925 23.87,-23.925 13.15,0 23.82,10.734 23.82,23.925 0,13.133 -10.67,23.809 -23.82,23.809"
         style="fill:#ffffff;fill-opacity:1;fill-rule:nonzero;stroke:none"
         id="path418" />
      <path
         d="m 1339.91,611.738 c 13.14,0 23.81,10.723 23.81,23.875 0,13.157 -10.67,23.86 -23.82,23.86 -13.17,0 -23.87,-10.703 -23.87,-23.86 0,-13.152 10.68,-23.875 23.81,-23.875"
         style="fill:#ffffff;fill-opacity:1;fill-rule:nonzero;stroke:none"
         id="path420" />
      <path
         d="m 1339.9,719.055 c -13.17,0 -23.87,-10.696 -23.87,-23.86 0,-13.183 10.7,-23.894 23.87,-23.894 13.15,0 23.82,10.711 23.82,23.894 0,13.164 -10.67,23.86 -23.82,23.86"
         style="fill:#ffffff;fill-opacity:1;fill-rule:nonzero;stroke:none"
         id="path422" />
      <path
         d="m 1220.72,560.176 c -13.17,0 -23.9,-10.703 -23.9,-23.887 0,-13.164 10.73,-23.867 23.9,-23.867 13.18,0 23.9,10.703 23.9,23.867 0,13.184 -10.72,23.887 -23.9,23.887"
         style="fill:#ffffff;fill-opacity:1;fill-rule:nonzero;stroke:none"
         id="path424" />
      <path
         d="m 1161.14,321.863 c -13.19,0 -23.92,-10.691 -23.92,-23.843 0,-13.165 10.73,-23.887 23.92,-23.887 13.16,0 23.86,10.722 23.86,23.887 0,13.152 -10.7,23.843 -23.86,23.843 z m 0,-10 c 7.64,0 13.86,-6.211 13.86,-13.843 0,-7.661 -6.22,-13.887 -13.86,-13.887 -7.67,0 -13.92,6.226 -13.92,13.887 0,7.632 6.25,13.843 13.92,13.843"
         style="fill:#ffffff;fill-opacity:1;fill-rule:nonzero;stroke:none"
         id="path426" />
      <path
         d="m 1161.14,381.465 c -13.19,0 -23.92,-10.711 -23.92,-23.867 0,-13.184 10.73,-23.907 23.92,-23.907 13.16,0 23.86,10.723 23.86,23.907 0,13.156 -10.7,23.867 -23.86,23.867 z m 0,-10 c 7.64,0 13.86,-6.223 13.86,-13.867 0,-7.664 -6.22,-13.907 -13.86,-13.907 -7.67,0 -13.92,6.243 -13.92,13.907 0,7.644 6.25,13.867 13.92,13.867"
         style="fill:#ffffff;fill-opacity:1;fill-rule:nonzero;stroke:none"
         id="path428" />
      <path
         d="m 1161.14,441.023 c -13.19,0 -23.92,-10.71 -23.92,-23.875 0,-13.156 10.73,-23.855 23.92,-23.855 13.16,0 23.86,10.699 23.86,23.855 0,13.165 -10.7,23.875 -23.86,23.875 z m 0,-10 c 7.64,0 13.86,-6.218 13.86,-13.875 0,-7.636 -6.22,-13.855 -13.86,-13.855 -7.67,0 -13.92,6.219 -13.92,13.855 0,7.657 6.25,13.875 13.92,13.875"
         style="fill:#ffffff;fill-opacity:1;fill-rule:nonzero;stroke:none"
         id="path430" />
      <path
         d="m 1061.88,321.863 c -13.17,0 -23.9,-10.691 -23.9,-23.843 0,-13.165 10.73,-23.887 23.9,-23.887 13.14,0 23.83,10.722 23.83,23.887 0,13.152 -10.69,23.843 -23.83,23.843"
         style="fill:#ffffff;fill-opacity:1;fill-rule:nonzero;stroke:none"
         id="path432" />
      <path
         d="m 1101.58,381.465 c -13.19,0 -23.91,-10.711 -23.91,-23.867 0,-13.184 10.72,-23.907 23.91,-23.907 13.13,0 23.8,10.723 23.8,23.907 0,13.156 -10.67,23.867 -23.8,23.867"
         style="fill:#ffffff;fill-opacity:1;fill-rule:nonzero;stroke:none"
         id="path434" />
      <path
         d="m 1101.58,500.586 c -13.19,0 -23.91,-10.691 -23.91,-23.84 0,-13.183 10.72,-23.894 23.91,-23.894 13.13,0 23.8,10.711 23.8,23.894 0,13.149 -10.67,23.84 -23.8,23.84"
         style="fill:#ffffff;fill-opacity:1;fill-rule:nonzero;stroke:none"
         id="path436" />
      <path
         d="m 1061.88,441.023 c -13.17,0 -23.9,-10.71 -23.9,-23.875 0,-13.156 10.73,-23.855 23.9,-23.855 13.14,0 23.83,10.699 23.83,23.855 0,13.165 -10.69,23.875 -23.83,23.875"
         style="fill:#ffffff;fill-opacity:1;fill-rule:nonzero;stroke:none"
         id="path438" />
      <path
         d="m 288.328,555.637 c -4.644,13.718 -10.699,19.578 -20.39,19.578 -9.891,0 -15.34,-6.055 -15.34,-15.945 0,-22.004 62.175,-23.625 62.175,-69.25 0,-25.032 -17.168,-41.582 -46.433,-41.582 -22.61,0 -40.176,12.316 -47.637,40.988 l 27.449,5.847 c 3.235,-17.558 13.325,-23.82 21.606,-23.82 9.683,0 17.156,6.457 17.156,17.363 0,27.454 -62.18,27.864 -62.18,68.633 0,25.031 14.946,40.781 43.813,40.781 24.82,0 39.969,-14.734 44.812,-35.332 l -25.031,-7.261"
         style="fill:#ffffff;fill-opacity:1;fill-rule:nonzero;stroke:none"
         id="path440" />
      <path
         d="m 362.988,493.66 c 0,-16.148 7.071,-20.594 18.172,-20.594 11.106,0 18.164,4.446 18.164,20.594 v 9.692 h 27.864 v -6.055 c 0,-35.942 -18.973,-48.859 -46.028,-48.859 -27.051,0 -46.023,12.917 -46.023,48.859 v 52.078 c 0,35.938 18.972,48.855 46.023,48.855 27.055,0 46.028,-12.917 46.028,-48.855 v -0.398 h -27.864 v 4.031 c 0,16.152 -7.058,20.597 -18.164,20.597 -11.101,0 -18.172,-4.445 -18.172,-20.597 V 493.66"
         style="fill:#ffffff;fill-opacity:1;fill-rule:nonzero;stroke:none"
         id="path442" />
      <path
         d="m 448.77,450.461 v 145.75 h 27.863 v -58.145 h 39.363 v 58.145 h 27.852 v -145.75 h -27.852 v 62.977 H 476.633 V 450.461 H 448.77"
         style="fill:#ffffff;fill-opacity:1;fill-rule:nonzero;stroke:none"
         id="path444" />
      <path
         d="m 594.102,493.66 c 0,-16.148 7.07,-20.594 18.171,-20.594 11.106,0 18.165,4.446 18.165,20.594 v 59.348 c 0,16.152 -7.059,20.597 -18.165,20.597 -11.101,0 -18.171,-4.445 -18.171,-20.597 z m -27.852,55.715 c 0,35.938 18.977,48.855 46.023,48.855 27.051,0 46.028,-12.917 46.028,-48.855 v -52.078 c 0,-35.942 -18.977,-48.859 -46.028,-48.859 -27.046,0 -46.023,12.917 -46.023,48.859 v 52.078"
         style="fill:#ffffff;fill-opacity:1;fill-rule:nonzero;stroke:none"
         id="path446" />
      <path
         d="m 705.73,493.66 c 0,-16.148 7.075,-20.594 18.176,-20.594 11.106,0 18.164,4.446 18.164,20.594 v 59.348 c 0,16.152 -7.058,20.597 -18.164,20.597 -11.101,0 -18.176,-4.445 -18.176,-20.597 z m -27.847,55.715 c 0,35.938 18.972,48.855 46.023,48.855 27.051,0 46.028,-12.917 46.028,-48.855 v -52.078 c 0,-35.942 -18.977,-48.859 -46.028,-48.859 -27.051,0 -46.023,12.917 -46.023,48.859 v 52.078"
         style="fill:#ffffff;fill-opacity:1;fill-rule:nonzero;stroke:none"
         id="path448" />
      <path
         d="m 791.531,450.461 v 145.75 h 27.856 V 475.09 h 44.824 v -24.629 h -72.68"
         style="fill:#ffffff;fill-opacity:1;fill-rule:nonzero;stroke:none"
         id="path450" />
      <path
         d="m 252.188,319.355 c 0,-16.152 7.07,-20.593 18.171,-20.593 11.106,0 18.164,4.441 18.164,20.593 v 59.344 c 0,16.156 -7.058,20.598 -18.164,20.598 -11.101,0 -18.171,-4.442 -18.171,-20.598 z m -27.852,55.711 c 0,35.942 18.977,48.86 46.023,48.86 27.051,0 46.028,-12.918 46.028,-48.86 v -52.078 c 0,-35.937 -18.977,-48.855 -46.028,-48.855 -27.046,0 -46.023,12.918 -46.023,48.855 v 52.078"
         style="fill:#ffffff;fill-opacity:1;fill-rule:nonzero;stroke:none"
         id="path452" />
      <path
         d="m 337.988,276.152 v 145.75 h 72.676 V 397.273 H 365.84 V 363.77 h 35.129 V 339.141 H 365.84 v -62.989 h -27.852"
         style="fill:#ffffff;fill-opacity:1;fill-rule:nonzero;stroke:none"
         id="path454" />
      <path
         d="m 496.418,319.355 c 0,-16.152 7.066,-20.593 18.172,-20.593 11.101,0 18.164,4.441 18.164,20.593 v 9.688 h 27.859 v -6.055 c 0,-35.937 -18.972,-48.855 -46.023,-48.855 -27.051,0 -46.027,12.918 -46.027,48.855 v 52.078 c 0,35.942 18.976,48.86 46.027,48.86 27.051,0 46.023,-12.918 46.023,-48.86 v -0.398 h -27.859 v 4.031 c 0,16.156 -7.063,20.598 -18.164,20.598 -11.106,0 -18.172,-4.442 -18.172,-20.598 v -59.344"
         style="fill:#ffffff;fill-opacity:1;fill-rule:nonzero;stroke:none"
         id="path456" />
      <path
         d="m 582.188,276.152 v 145.75 h 27.863 v -145.75 h -27.863"
         style="fill:#ffffff;fill-opacity:1;fill-rule:nonzero;stroke:none"
         id="path458" />
      <path
         d="m 721.309,421.902 v -24.629 h -32.5 V 276.152 h -27.852 v 121.121 h -32.512 v 24.629 h 92.864"
         style="fill:#ffffff;fill-opacity:1;fill-rule:nonzero;stroke:none"
         id="path460" />
      <path
         d="m 739.883,276.152 v 145.75 h 27.859 v -145.75 h -27.859"
         style="fill:#ffffff;fill-opacity:1;fill-rule:nonzero;stroke:none"
         id="path462" />
      <path
         d="m 791.73,276.152 v 145.75 h 76.305 V 397.273 H 819.578 V 363.77 h 36.945 v -24.629 h -36.945 v -38.36 h 50.473 V 276.152 H 791.73"
         style="fill:#ffffff;fill-opacity:1;fill-rule:nonzero;stroke:none"
         id="path464" />
      <path
         d="m 953.633,381.328 c -4.649,13.731 -10.703,19.578 -20.391,19.578 -9.89,0 -15.344,-6.051 -15.344,-15.945 0,-22 62.18,-23.613 62.18,-69.238 0,-25.039 -17.168,-41.59 -46.433,-41.59 -22.61,0 -40.176,12.312 -47.649,40.984 l 27.461,5.852 c 3.231,-17.563 13.32,-23.821 21.602,-23.821 9.687,0 17.16,6.457 17.16,17.364 0,27.453 -62.18,27.851 -62.18,68.633 0,25.031 14.941,40.781 43.809,40.781 24.824,0 39.968,-14.738 44.812,-35.332 l -25.027,-7.266"
         style="fill:#ffffff;fill-opacity:1;fill-rule:nonzero;stroke:none"
         id="path466" />
    </g>
  </g>
</svg>
